<?xml version="1.0" standalone="no"?>
<!DOCTYPE svg PUBLIC "-//W3C//DTD SVG 20010904//EN"
 "http://www.w3.org/TR/2001/REC-SVG-20010904/DTD/svg10.dtd">
<svg version="1.0" xmlns="http://www.w3.org/2000/svg"
 width="100.000000pt" height="150.000000pt" viewBox="0 0 488.000000 274.000000"
 preserveAspectRatio="xMidYMid meet">

<g transform="translate(0.000000,274.000000) scale(0.100000,-0.100000)"
fill="#000000" stroke="none">
<path d="M308 2555 c-84 -21 -129 -48 -180 -103 -48 -54 -68 -105 -68 -173 0
-145 79 -216 290 -265 137 -32 187 -55 196 -89 15 -59 -61 -103 -152 -89 -55
8 -99 42 -114 89 l-12 35 -114 0 -114 0 0 -40 c0 -98 74 -207 170 -249 112
-49 299 -54 415 -11 73 28 145 96 163 156 33 113 0 236 -80 294 -58 42 -94 57
-216 86 -114 27 -156 45 -166 69 -23 60 14 95 100 95 53 0 67 -4 93 -26 17
-14 31 -34 31 -45 0 -18 9 -19 121 -19 l122 0 -7 46 c-14 104 -92 193 -201
229 -69 23 -206 28 -277 10z"/>
<path d="M3380 2410 l0 -80 -50 0 -50 0 0 -65 0 -65 50 0 50 0 0 -215 c0 -238
5 -262 59 -308 18 -14 51 -32 74 -38 40 -11 145 -8 165 5 6 3 5 28 -2 63 l-12
58 -47 3 c-74 5 -77 13 -77 239 l0 193 70 0 71 0 -3 63 -3 62 -67 3 -68 3 0
79 0 80 -80 0 -80 0 0 -80z"/>
<path d="M1234 2331 c-51 -13 -94 -44 -120 -86 l-24 -40 0 63 0 63 -77 -3 -78
-3 -3 -342 -2 -343 85 0 85 0 0 240 0 240 33 36 c40 44 96 55 146 29 55 -28
61 -57 61 -315 l0 -230 80 0 80 0 0 235 c0 191 3 242 15 265 29 55 105 76 166
44 53 -27 59 -58 59 -314 l0 -230 80 0 80 0 0 253 c0 299 -7 335 -71 391 -97
83 -271 62 -331 -39 l-20 -36 -26 40 c-43 66 -138 102 -218 82z"/>
<path d="M2260 2326 c-30 -6 -66 -18 -80 -25 -35 -19 -89 -71 -106 -103 -26
-49 -20 -55 56 -63 68 -7 71 -6 91 19 30 38 71 56 129 56 44 0 56 -5 81 -29
32 -32 40 -89 15 -110 -7 -6 -62 -18 -122 -26 -60 -8 -125 -19 -145 -25 -150
-43 -199 -223 -90 -331 42 -43 91 -59 177 -59 76 0 128 21 171 68 l33 36 0
-47 0 -47 75 0 75 0 0 260 c0 213 -3 267 -15 298 -31 73 -88 112 -190 131 -70
13 -84 13 -155 -3z m200 -423 c0 -101 -53 -153 -156 -153 -77 0 -114 28 -114
85 0 50 36 81 108 95 32 6 75 14 97 19 67 14 65 16 65 -46z"/>
<path d="M3065 2325 c-37 -13 -74 -46 -102 -91 -10 -16 -12 -10 -12 39 l-1 58
-77 -3 -78 -3 -3 -342 -2 -343 85 0 85 0 0 226 c0 210 2 229 20 259 27 44 75
65 149 65 l61 0 0 69 c0 54 -4 70 -16 75 -25 10 -66 6 -109 -9z"/>
<path d="M385 1326 c-156 -38 -270 -149 -310 -301 -19 -73 -20 -242 -1 -310
35 -130 131 -242 247 -286 55 -21 81 -24 184 -24 114 0 123 2 187 32 37 17 88
52 113 78 50 49 105 153 105 198 l0 27 -122 0 -123 -1 -20 -42 c-27 -56 -71
-80 -146 -80 -76 0 -127 32 -160 100 -19 40 -23 64 -24 143 0 189 73 274 221
257 56 -6 111 -54 120 -104 l6 -33 125 0 126 0 -6 45 c-11 103 -92 216 -189
266 -87 45 -231 60 -333 35z"/>
<path d="M3800 1180 l0 -80 -50 0 -50 0 0 -65 0 -65 50 0 50 0 0 -215 c0 -238
5 -262 59 -308 18 -14 51 -32 74 -38 40 -11 145 -8 165 5 6 3 5 28 -2 63 l-12
58 -47 3 c-74 5 -77 13 -77 239 l0 193 70 0 71 0 -3 63 -3 62 -67 3 -68 3 0
79 0 80 -80 0 -80 0 0 -80z"/>
<path d="M1291 1100 c-159 -33 -252 -158 -254 -340 -2 -147 45 -250 141 -311
61 -38 101 -49 189 -49 102 0 167 26 230 93 70 74 88 127 88 262 0 98 -3 116
-26 165 -37 79 -72 115 -142 149 -69 34 -155 45 -226 31z m157 -149 c63 -44
95 -166 72 -275 -9 -45 -21 -67 -54 -102 -40 -41 -46 -44 -97 -44 -105 0 -159
64 -167 201 -9 155 62 256 175 245 22 -2 55 -13 71 -25z"/>
<path d="M2124 1101 c-51 -13 -94 -44 -120 -86 l-24 -40 0 63 0 63 -77 -3 -78
-3 -3 -342 -2 -343 85 0 85 0 0 240 0 240 33 36 c40 44 96 55 146 29 55 -28
61 -57 61 -315 l0 -230 80 0 80 0 0 235 c0 191 3 242 15 265 29 55 105 76 166
44 53 -27 59 -58 59 -314 l0 -230 80 0 80 0 0 253 c0 299 -7 335 -71 391 -97
83 -271 62 -331 -39 l-20 -36 -26 40 c-43 66 -138 102 -218 82z"/>
<path d="M3274 1101 c-49 -13 -93 -43 -122 -85 l-27 -40 -3 63 -3 62 -77 -3
-77 -3 -3 -472 -2 -473 85 0 85 0 0 180 0 180 36 -39 c100 -111 293 -89 381
43 47 69 58 116 58 246 0 105 -3 120 -29 178 -31 66 -86 125 -140 147 -43 18
-123 26 -162 16z m85 -147 c67 -40 104 -159 82 -266 -23 -107 -85 -163 -170
-155 -54 6 -89 31 -121 88 -21 37 -25 57 -25 129 0 100 27 170 79 201 38 23
118 25 155 3z"/>
<path d="M4430 1096 c-30 -6 -66 -18 -80 -25 -35 -19 -89 -71 -106 -103 -26
-49 -20 -55 56 -63 68 -7 71 -6 91 19 30 38 71 56 129 56 44 0 56 -5 81 -29
32 -32 40 -89 15 -110 -7 -6 -62 -18 -122 -26 -60 -8 -125 -19 -145 -25 -150
-43 -199 -223 -90 -331 42 -43 91 -59 177 -59 76 0 128 21 171 68 l33 36 0
-47 0 -47 75 0 75 0 0 260 c0 213 -3 267 -15 298 -31 73 -88 112 -190 131 -70
13 -84 13 -155 -3z m200 -423 c0 -101 -53 -153 -156 -153 -77 0 -114 28 -114
85 0 50 36 81 108 95 32 6 75 14 97 19 67 14 65 16 65 -46z"/>
</g>
</svg>
